<?xml version="1.0" encoding="UTF-8" standalone="no"?>
<svg
   xmlns:dc="http://purl.org/dc/elements/1.1/"
   xmlns:cc="http://creativecommons.org/ns#"
   xmlns:rdf="http://www.w3.org/1999/02/22-rdf-syntax-ns#"
   xmlns:svg="http://www.w3.org/2000/svg"
   xmlns="http://www.w3.org/2000/svg"
   xmlns:sodipodi="http://sodipodi.sourceforge.net/DTD/sodipodi-0.dtd"
   xmlns:inkscape="http://www.inkscape.org/namespaces/inkscape"
   width="535"
   height="89"
   overflow="hidden"
   version="1.1"
   id="svg19"
   sodipodi:docname="italentlogo.svg"
   style="overflow:hidden"
   inkscape:version="0.92.4 (5da689c313, 2019-01-14)">
  <metadata
     id="metadata23">
    <rdf:RDF>
      <cc:Work
         rdf:about="">
        <dc:format>image/svg+xml</dc:format>
        <dc:type
           rdf:resource="http://purl.org/dc/dcmitype/StillImage" />
        <dc:title></dc:title>
      </cc:Work>
    </rdf:RDF>
  </metadata>
  <sodipodi:namedview
     pagecolor="#ffffff"
     bordercolor="#666666"
     borderopacity="1"
     objecttolerance="10"
     gridtolerance="10"
     guidetolerance="10"
     inkscape:pageopacity="0"
     inkscape:pageshadow="2"
     inkscape:window-width="1920"
     inkscape:window-height="1017"
     id="namedview21"
     showgrid="false"
     fit-margin-top="0"
     fit-margin-left="0"
     fit-margin-right="0"
     fit-margin-bottom="0"
     inkscape:zoom="0.52985075"
     inkscape:cx="267"
     inkscape:cy="26.5"
     inkscape:window-x="1912"
     inkscape:window-y="438"
     inkscape:window-maximized="1"
     inkscape:current-layer="svg19" />
  <defs
     id="defs5">
    <clipPath
       id="clip0">
      <path
         d="M 78,531 H 614 V 734 H 78 Z"
         id="path2"
         inkscape:connector-curvature="0"
         style="clip-rule:evenodd;fill-rule:evenodd" />
    </clipPath>
  </defs>
  <g
     clip-path="url(#clip0)"
     transform="translate(-79,-570)"
     id="g17">
    <path
       d="M 79,614.5 C 79,589.923 98.9233,570 123.5,570 148.077,570 168,589.923 168,614.5 168,639.077 148.077,659 123.5,659 98.9233,659 79,639.077 79,614.5 Z"
       id="path7"
       inkscape:connector-curvature="0"
       style="fill:#06bab3;fill-rule:evenodd" />
    <path
       d="M 104.889,602 H 98 c 0,13.208 10.796,23.917 24.111,23.917 v 15.375 c 0,0.939 0.775,1.708 1.722,1.708 h 3.445 c 0.947,0 1.722,-0.769 1.722,-1.708 V 625.917 C 129,612.709 118.204,602 104.889,602 Z"
       id="path9"
       inkscape:connector-curvature="0"
       style="fill:#ffffff;fill-rule:evenodd" />
    <path
       d="m 146.346,596 c -8.754,0 -16.364,5.009 -20.346,12.409 2.88,3.253 5.011,7.207 6.134,11.591 C 143.851,618.74 153,608.485 153,596 Z"
       id="path11"
       inkscape:connector-curvature="0"
       style="fill:#ffffff;fill-rule:evenodd" />
    <path
       d="m 123.479,605.856 c 0.709,-1.646 1.606,-3.18 2.675,-4.578 1.212,-1.735 2.6,-3.199 4.049,-4.453 -2.463,-5.043 -6.293,-9.16 -10.513,-11.342 -0.386,-0.2 -0.935,-0.081 -1.204,0.261 -2.934,3.733 -4.713,9.063 -4.866,14.669 1.811,0.533 3.647,1.276 5.435,2.332 1.605,0.859 3.09,1.904 4.424,3.111 z"
       id="path13"
       inkscape:connector-curvature="0"
       style="fill:#ffffff;fill-rule:evenodd" />
    <text
       font-weight="700"
       font-size="96"
       transform="translate(190.249,653)"
       id="text15"
       style="font-weight:700;font-size:96px;font-family:Raleway, Raleway_MSFontService, sans-serif;fill:#ffffff">I-Talent</text>
  </g>
</svg>
