<?xml version="1.0" encoding="UTF-8" standalone="no"?>
<svg
   xmlns:dc="http://purl.org/dc/elements/1.1/"
   xmlns:cc="http://creativecommons.org/ns#"
   xmlns:rdf="http://www.w3.org/1999/02/22-rdf-syntax-ns#"
   xmlns:svg="http://www.w3.org/2000/svg"
   xmlns="http://www.w3.org/2000/svg"
   xmlns:sodipodi="http://sodipodi.sourceforge.net/DTD/sodipodi-0.dtd"
   xmlns:inkscape="http://www.inkscape.org/namespaces/inkscape"
   width="459.457"
   height="89"
   viewBox="0 0 459 89"
   overflow="hidden"
   version="1.1"
   id="svg23"
   sodipodi:docname="italentlogo-v2.svg"
   style="overflow:hidden"
   inkscape:version="0.92.5 (2060ec1f9f, 2020-04-08)">
  <metadata
     id="metadata27">
    <rdf:RDF>
      <cc:Work
         rdf:about="">
        <dc:format>image/svg+xml</dc:format>
        <dc:type
           rdf:resource="http://purl.org/dc/dcmitype/StillImage" />
        <dc:title></dc:title>
      </cc:Work>
    </rdf:RDF>
  </metadata>
  <sodipodi:namedview
     pagecolor="#ffffff"
     bordercolor="#666666"
     borderopacity="1"
     objecttolerance="10"
     gridtolerance="10"
     guidetolerance="10"
     inkscape:pageopacity="0"
     inkscape:pageshadow="2"
     inkscape:window-width="1920"
     inkscape:window-height="1017"
     id="namedview25"
     showgrid="false"
     scale-x="0.3"
     fit-margin-top="0"
     fit-margin-left="0"
     fit-margin-right="0"
     fit-margin-bottom="0"
     inkscape:zoom="0.5503876"
     inkscape:cx="257"
     inkscape:cy="26.5"
     inkscape:window-x="-8"
     inkscape:window-y="438"
     inkscape:window-maximized="1"
     inkscape:current-layer="svg23" />
  <defs
     id="defs5">
    <clipPath
       id="clip0">
      <path
         d="M 79,531 H 595 V 734 H 79 Z"
         id="path2"
         inkscape:connector-curvature="0"
         style="clip-rule:evenodd;fill-rule:evenodd" />
    </clipPath>
  </defs>
  <g
     clip-path="url(#clip0)"
     transform="translate(-80,-570)"
     id="g21">
    <path
       d="M 80,614.5 C 80,589.923 99.9233,570 124.5,570 149.077,570 169,589.923 169,614.5 169,639.077 149.077,659 124.5,659 99.9233,659 80,639.077 80,614.5 Z"
       id="path7"
       inkscape:connector-curvature="0"
       style="fill:#06bab3;fill-rule:evenodd" />
    <path
       d="M 103.889,603 H 97 c 0,13.208 10.796,23.917 24.111,23.917 v 15.375 c 0,0.939 0.775,1.708 1.722,1.708 h 3.445 c 0.947,0 1.722,-0.769 1.722,-1.708 V 626.917 C 128,613.709 117.204,603 103.889,603 Z"
       id="path9"
       inkscape:connector-curvature="0"
       style="fill:#ffffff;fill-rule:evenodd" />
    <path
       d="m 144.346,597 c -8.754,0 -16.364,4.8 -20.346,11.892 2.88,3.118 5.011,6.906 6.134,11.108 C 141.851,618.792 151,608.965 151,597 Z"
       id="path11"
       inkscape:connector-curvature="0"
       style="fill:#ffffff;fill-rule:evenodd" />
    <path
       d="m 122.244,606.779 c 0.709,-1.646 1.606,-3.18 2.675,-4.578 1.212,-1.735 2.6,-3.199 4.049,-4.453 -2.463,-5.043 -6.293,-9.16 -10.513,-11.342 -0.386,-0.2 -0.935,-0.081 -1.204,0.261 -2.934,3.733 -4.713,9.063 -4.866,14.669 1.811,0.533 3.647,1.276 5.435,2.332 1.604,0.86 3.09,1.904 4.424,3.111 z"
       id="path13"
       inkscape:connector-curvature="0"
       style="fill:#ffffff;fill-rule:evenodd" />
    <text
       font-weight="700"
       font-size="96"
       transform="translate(190.249,653)"
       id="text19"
       style="font-weight:700;font-size:96px;font-family:Raleway, Raleway_MSFontService, sans-serif;fill:#ffffff">I-<tspan
   x="63.666698"
   y="0"
   id="tspan15">Talen</tspan>
<tspan
   font-size="93"
   x="314.33301"
   y="0"
   id="tspan17"
   style="font-size:93px">t</tspan>
</text>
  </g>
</svg>
