<?xml version="1.0" encoding="utf-8"?>
<!-- Generator: Adobe Illustrator 23.0.6, SVG Export Plug-In . SVG Version: 6.00 Build 0)  -->
<svg version="1.1" id="Layer_2" xmlns="http://www.w3.org/2000/svg" xmlns:xlink="http://www.w3.org/1999/xlink" x="0px" y="0px"
	 viewBox="0 0 2728 1095" style="enable-background:new 0 0 2728 1095;" xml:space="preserve">
<style type="text/css">
	.st0{fill:#F24405;}
	.st1{fill:none;stroke:#F24405;stroke-width:10;stroke-miterlimit:10;}
</style>
<g id="XMLID_1_">
	<g>
		<path class="st0" d="M1563.91,993.77c5.87,11.02,1.67,24.72-9.35,30.58l-7.7,4.08c-11.02,5.87-24.72,1.68-30.57-9.34
			l-85.17-160.18c-5.9-11.08-1.66-24.98,9.53-30.67c2.45-1.25,4.89-2.54,7.29-3.88c10.99-6.13,24.89-1.89,30.8,9.22L1563.91,993.77z
			"/>
		<path class="st0" d="M1349.4,291.74c126.37,13.97,224.97,129.64,224.97,270.25c0,140.63-98.59,256.31-224.97,270.28
			c-13.33,1.47-24.95-9.08-24.95-22.5v-31.11c0-11.49,8.64-21.03,20.04-22.45c89.84-11.2,159.59-93.87,159.59-194.22
			c0-100.32-69.75-183.03-159.59-194.21c-11.4-1.42-20.04-10.96-20.04-22.47v-31.08C1324.45,300.83,1336.07,290.27,1349.4,291.74z"
			/>
		<path class="st0" d="M1322.78,546.07v31.08c0,13.42-11.62,23.98-24.95,22.5c-126.37-13.96-224.98-129.63-224.98-270.25
			c0-140.63,98.61-256.31,224.98-270.26c13.33-1.48,24.95,9.08,24.95,22.5v31.09c0,11.5-8.64,21.04-20.04,22.47
			c-89.85,11.18-159.6,93.86-159.6,194.21c0,100.34,69.75,183.03,159.6,194.22C1314.14,525.04,1322.78,534.58,1322.78,546.07z"/>
	</g>
	<g>
	</g>
</g>
<g>
	<g>
		<path class="st0" d="M75.57,475.97V124.19H186.7V484.4c0,136.42,50.96,181.25,126.84,181.25c76.64,0,129.52-44.83,129.52-181.25
			V124.19h106.91v351.77c0,205.78-91.2,286.25-236.43,286.25C168.3,762.21,75.57,681.74,75.57,475.97z"/>
		<path class="st0" d="M611.28,280.15h90.43l8.43,50.2h3.07c39.66-34.1,90.05-61.69,141.78-61.69
			c117.64,0,185.08,94.27,185.08,239.5c0,160.94-96.18,254.06-200.8,254.06c-41.77,0-82.77-18.78-121.09-51.73l3.45,78.17v148.3
			H611.28V280.15z M926.65,509.3c0-93.88-30.66-149.45-102.31-149.45c-34.1,0-66.29,17.24-102.7,52.88v219.19
			c33.72,28.74,67.06,39.09,94.27,39.09C878.75,671.01,926.65,615.83,926.65,509.3z"/>
	</g>
</g>
<g>
	<g>
		<path class="st0" d="M1624.89,117.55h104.12v407.23h2.95l167.99-208.6h116.3l-155.43,184.6l171.31,268.78h-115.56L1799.9,572.77
			l-70.89,81.59v115.19h-104.12V117.55z"/>
		<path class="st0" d="M2061.28,176.62c0-35.81,28.06-60.18,65.72-60.18c37.66,0,65.72,24.37,65.72,60.18
			c0,35.07-28.06,60.18-65.72,60.18C2089.34,236.8,2061.28,211.69,2061.28,176.62z M2073.46,316.18h106.33v453.38h-106.33V316.18z"
			/>
		<path class="st0" d="M2282.05,652.89V117.55h106.33v540.88c0,26.21,11.81,35.44,22.89,35.44c4.8,0,8.49,0,16.61-1.85l13.29,79.38
			c-12.92,5.17-30.64,9.23-56.12,9.23C2309.74,780.63,2282.05,731.9,2282.05,652.89z"/>
		<path class="st0" d="M2498.95,652.89V117.55h106.33v540.88c0,26.21,11.81,35.44,22.89,35.44c4.8,0,8.49,0,16.61-1.85l13.29,79.38
			c-12.92,5.17-30.64,9.23-56.12,9.23C2526.64,780.63,2498.95,731.9,2498.95,652.89z"/>
	</g>
</g>
<path class="st1" d="M1348.97,761.5l-211.39,1.78c-35.55,0-64.37-18.29-64.37-40.85l0-87.51c0-22.56,28.82-40.85,64.37-40.85h151.25
	"/>
<path class="st1" d="M1297.37,129.27l194.48-1.78c32.7,0,59.22,18.34,59.22,40.95v87.74c0,22.62-26.51,40.95-59.22,40.95l-139.15,0"
	/>
</svg>
