<?xml version="1.0" encoding="utf-8"?>
<!-- Generator: Adobe Illustrator 23.0.6, SVG Export Plug-In . SVG Version: 6.00 Build 0)  -->
<svg version="1.1" id="Layer_2" xmlns="http://www.w3.org/2000/svg" xmlns:xlink="http://www.w3.org/1999/xlink" x="0px" y="0px"
	 viewBox="0 0 2728 1095" style="enable-background:new 0 0 2728 1095;" xml:space="preserve">
<style type="text/css">
	.st0{fill:#FFFFFF;}
</style>
<g>
	<path class="st0" d="M824.34,359.86c-34.1,0-66.29,17.24-102.7,52.88v219.19c33.72,28.74,67.06,39.09,94.27,39.09
		c62.84,0,110.74-55.18,110.74-161.71C926.65,415.42,896,359.86,824.34,359.86z"/>
	<path class="st0" d="M1344.49,367.78c-11.4-1.42-20.04-10.97-20.04-22.46v-31.08c0-13.41,11.62-23.96,24.95-22.49
		c1.11,0.12,2.2,0.27,3.3,0.41v-0.02h139.15c29.9,0,54.22-16.13,54.22-35.95v-87.74c0-19.82-24.32-35.95-54.22-35.95l-184.7,1.69
		c-1.41,0.47-2.89,0.81-4.42,1c-89.85,11.19-159.6,93.87-159.6,194.22c0,100.33,69.75,183.03,159.6,194.22
		c11.4,1.42,20.04,10.97,20.04,22.46v31.08c0,13.41-11.62,23.96-24.95,22.49c-3.02-0.33-6.01-0.74-9-1.19v0.62h-151.25
		c-16.26,0-31.47,3.97-42.83,11.19c-10.66,6.77-16.53,15.52-16.53,24.66v87.51c0,9.14,5.87,17.9,16.53,24.66
		c11.37,7.21,26.58,11.19,42.83,11.19l204.86-1.72c0.67-0.15,1.36-0.27,2.06-0.35c89.83-11.19,159.58-93.87,159.58-194.22
		C1504.07,461.67,1434.32,378.97,1344.49,367.78z"/>
	<path class="st0" d="M0,0v1095h2728V0H0z M549.97,475.97c0,205.78-91.2,286.25-236.43,286.25c-145.23,0-237.97-80.47-237.97-286.25
		V124.19H186.7V484.4c0,136.42,50.96,181.25,126.84,181.25c76.64,0,129.52-44.83,129.52-181.25V124.19h106.91V475.97z
		 M839.28,762.21c-41.77,0-82.77-18.78-121.09-51.73l3.45,78.17v148.3H611.28v-656.8h90.44l8.43,50.2h3.07
		c39.66-34.1,90.05-61.69,141.78-61.69c117.64,0,185.08,94.27,185.08,239.5C1040.08,669.1,943.9,762.21,839.28,762.21z
		 M1554.56,1024.34l-7.7,4.09c-11.02,5.86-24.71,1.68-30.57-9.35l-85.17-160.18c-5.89-11.08-1.65-24.98,9.53-30.67
		c2.45-1.25,4.88-2.54,7.29-3.88c10.99-6.12,24.89-1.88,30.8,9.22l85.17,160.19C1569.77,1004.79,1565.58,1018.48,1554.56,1024.34z
		 M1349.4,832.26c-13.33,1.47-24.95-9.08-24.95-22.49v-31.1c0-4.4,1.27-8.5,3.47-11.98l-190.3,1.6c-18.17,0-35.29-4.53-48.23-12.74
		c-13.65-8.66-21.17-20.42-21.17-33.1v-87.51c0-12.68,7.52-24.44,21.17-33.1c12.95-8.22,30.06-12.74,48.19-12.74h112.17
		c-102.43-34.15-176.89-137.49-176.89-259.68c0-140.63,98.6-256.3,224.97-270.27c13.33-1.47,24.95,9.08,24.95,22.49v31.1
		c0,4.13-1.13,8-3.09,11.34l172.12-1.58c35.46,0,64.26,20.61,64.26,45.95v87.74c0,25.34-28.81,45.95-64.22,45.95h-94.91
		c102.71,33.96,177.43,137.45,177.43,259.86C1574.37,702.63,1475.77,818.3,1349.4,832.26z M1916.56,769.56L1799.9,572.77
		l-70.89,81.59v115.19h-104.12V117.55h104.12v407.23h2.95l167.99-208.6h116.3l-155.43,184.6l171.31,268.78H1916.56z M2179.79,769.56
		h-106.33V316.18h106.33V769.56z M2127,236.8c-37.66,0-65.72-25.11-65.72-60.18c0-35.81,28.06-60.18,65.72-60.18
		c37.66,0,65.72,24.37,65.72,60.18C2192.71,211.69,2164.65,236.8,2127,236.8z M2385.06,780.63c-75.32,0-103.01-48.73-103.01-127.74
		V117.55h106.33v540.88c0,26.21,11.81,35.44,22.89,35.44c4.8,0,8.49,0,16.61-1.85l13.29,79.38
		C2428.26,776.57,2410.54,780.63,2385.06,780.63z M2601.96,780.63c-75.32,0-103.01-48.73-103.01-127.74V117.55h106.33v540.88
		c0,26.21,11.81,35.44,22.89,35.44c4.8,0,8.49,0,16.61-1.85l13.29,79.38C2645.16,776.57,2627.44,780.63,2601.96,780.63z"/>
</g>
</svg>
