<svg id="Layer_1" data-name="Layer 1" xmlns="http://www.w3.org/2000/svg" xmlns:xlink="http://www.w3.org/1999/xlink" viewBox="0 0 567.27 494.83"><defs><linearGradient id="linear-gradient" x1="390.91" y1="274.27" x2="446.18" y2="504.55" gradientUnits="userSpaceOnUse"><stop offset="0" stop-color="#010101" stop-opacity="0"/><stop offset="0.95" stop-color="#010101"/></linearGradient><linearGradient id="linear-gradient-2" x1="254.17" y1="239.77" x2="170.73" y2="493.25" xlink:href="#linear-gradient"/><linearGradient id="linear-gradient-3" x1="264.86" y1="142.42" x2="238.91" y2="263.03" xlink:href="#linear-gradient"/><linearGradient id="linear-gradient-4" x1="224.06" y1="144.61" x2="323.25" y2="301.91" gradientUnits="userSpaceOnUse"><stop offset="0" stop-color="#fff" stop-opacity="0"/><stop offset="0.95" stop-color="#fff"/></linearGradient><linearGradient id="linear-gradient-5" x1="309.72" y1="-371.68" x2="283.76" y2="-251.07" gradientTransform="translate(0.38 198.8) rotate(47.32)" xlink:href="#linear-gradient"/><linearGradient id="linear-gradient-6" x1="364.28" y1="293.83" x2="766.03" y2="-220.58" xlink:href="#linear-gradient"/><linearGradient id="linear-gradient-7" x1="457.03" y1="227.68" x2="450.12" y2="-25.27" xlink:href="#linear-gradient"/><linearGradient id="linear-gradient-8" x1="228.02" y1="304.66" x2="124.57" y2="939.51" xlink:href="#linear-gradient"/><linearGradient id="linear-gradient-9" x1="199.67" y1="321.93" x2="202.5" y2="534.14" xlink:href="#linear-gradient"/><linearGradient id="linear-gradient-10" x1="393.44" y1="339.65" x2="607.06" y2="476.04" xlink:href="#linear-gradient"/><linearGradient id="linear-gradient-11" x1="519.52" y1="331.59" x2="470.46" y2="559.58" gradientUnits="userSpaceOnUse"><stop offset="0" stop-color="#e5c6d6"/><stop offset="0.42" stop-color="#ead4d0"/><stop offset="1" stop-color="#f0e9cb"/></linearGradient><linearGradient id="linear-gradient-12" x1="184.21" y1="170.25" x2="106.36" y2="193.63" xlink:href="#linear-gradient"/></defs><title>Diversity 1</title><path d="M626.34,280.12c-3.69,48.28-38.13,92.4-34.83,140,.14,2,.33,4,.6,5.93.62,4.72,1.64,9.38,2.64,14,1.35,6.29,2.65,12.58,2.86,19,.24,7.63-1.5,15.81-5.69,22a22.48,22.48,0,0,1-7.55,7,23.84,23.84,0,0,1-2.16,1.05A45.68,45.68,0,0,1,569.35,492c-63.8,6.72-127.25-16.12-191.43-15.36-54,.64-107,18-160.43,24.12-8,.94-16,1.62-24,1.92q-11.1.52-22.23,0c-2.8-.15-5.55-.34-8.3-.56-3.71-.31-7.4-.76-11.11-1.33-20.76-3-41.1-9.81-57.4-22.83C62,452,51.75,403.9,65.11,364.49c8.68-25.63,26.13-48.89,27.48-75.87,1.51-30.16-17.36-57.3-23.58-86.86-2.69-12.53-3-25.45-2.65-38.23.63-20.24,4-42.28,18.76-56.1a63.72,63.72,0,0,1,13.25-9.18c2.64-1.43,5.28-2.75,8-4.07C116.86,89,127.47,83.91,138.08,79q57-26.79,115.59-49.83C277,20,300.85,11.13,325.83,8.76,371.62,4.45,416.47,22.19,458,42.08c22.16,10.65,44.05,22,66.81,31.49,5.85,2.41,11.74,4.72,17.71,6.79,5.17,1.86,10.42,3.59,15.7,5.09,6.75,2,15.86,2.58,23,5.18l1.47.56A18.6,18.6,0,0,1,588,94.44l.3.27c14.07,13.28,19.43,49.59,23.52,67.91,5.21,23.24,8.41,46.91,11.55,70.51C625.43,248.72,627.52,264.45,626.34,280.12Z" transform="translate(-59.41 -8.11)" fill="#087472" opacity="0.24" style="isolation:isolate"/><path d="M468.79,345.37l7.36-33.47-1.59-7.44-41.75,4.36s-5,29.73-19.19,19.8-1.7-21.25-1.7-21.25l-1.59-7.44L369,303.39l-7.27,40.35s-17.7-11.55-26.1-2.22c-5.94,6.6-1.33,22.14,9.29,24.16A36.4,36.4,0,0,0,358,366l-10.22,39.66,1.59,7.44L453,426.65Z" transform="translate(-59.41 -8.11)" fill="#087472"/><path d="M468.79,345.37l7.36-33.47-1.59-7.44-41.75,4.36s-5,29.73-19.19,19.8-1.7-21.25-1.7-21.25l-1.59-7.44L369,303.39l-7.27,40.35s-17.7-11.55-26.1-2.22c-5.94,6.6-1.33,22.14,9.29,24.16A36.4,36.4,0,0,0,358,366l-10.22,39.66,1.59,7.44L453,426.65Z" transform="translate(-59.41 -8.11)" fill="url(#linear-gradient)"/><path d="M226.46,407.23l32.8,9.9,10.27-5.67-3.89-37.32s-29.25-7.27-18.27-20.64,21.32-.07,21.32-.07L279,347.76l-3-36.82L236.26,300.6s15-21.73,6.38-30.82c-6.13-6.43-24.14,2-27,12.39a36.64,36.64,0,0,0-1.3,13l-36-17.88L168.07,283,146.62,385.27Z" transform="translate(-59.41 -8.11)" fill="#087472"/><path d="M226.46,407.23l32.8,9.9,10.27-5.67-3.89-37.32s-29.25-7.27-18.27-20.64,21.32-.07,21.32-.07L279,347.76l-3-36.82L236.26,300.6s15-21.73,6.38-30.82c-6.13-6.43-24.14,2-27,12.39a36.64,36.64,0,0,0-1.3,13l-36-17.88L168.07,283,146.62,385.27Z" transform="translate(-59.41 -8.11)" fill="url(#linear-gradient-2)"/><path d="M190.85,196.21,174.62,214l-2.13,11.16,39.68,17.72s14.88-26.22,24.8-12.05c5,7.09.11,11.64-3.54,9.39l-2.13,11.16,39,18.42,19.13-33.3s16.3,7.79,24.09,3.54c4.1-2.24,6.47-6.64,7.4-10.1,0,0,1.93-9.87,1.46-11.16-.86-2.33-5.34,2.45-8.15.71-9.21-5.67-12.75-2.83-12.75-2.83l24.79-43.22,2.13-11.16-90.69-25.69Z" transform="translate(-59.41 -8.11)" fill="url(#linear-gradient-3)"/><path d="M193,185.05,174.62,214l39.67,17.72s11.34-20.91,24.8-12c12.28,8.08-5.66,20.55-5.66,20.55l39,18.42,19.13-33.3s16.29,7.79,24.09,3.54,9.92-14.88.7-20.55-12.75-2.83-12.75-2.83l24.8-43.22L239.8,125.41Z" transform="translate(-59.41 -8.11)" fill="#087472"/><path d="M193,185.05,174.62,214l39.67,17.72s11.34-20.91,24.8-12c12.28,8.08-5.66,20.55-5.66,20.55l39,18.42,19.13-33.3s16.29,7.79,24.09,3.54,9.92-14.88.7-20.55-12.75-2.83-12.75-2.83l24.8-43.22L239.8,125.41Z" transform="translate(-59.41 -8.11)" fill="url(#linear-gradient-4)"/><path d="M393.62,264.83l37.45-8.51s5.32,17.27,13.73,20.12c4.42,1.49,9.26.25,12.43-1.41,0,0,8.57-5.28,9.2-6.49,1.13-2.22-5.41-2.27-6.05-5.51-2.08-10.62-6.56-11.3-6.56-11.3l48.58-11.07,9.65-6-42.6-84.09-75.59,6-24.07.11-9.64,6L374,203.87s29.36-6.83,25.66,10.06c-1.84,8.45-8.48,8-9.3,3.76l-9.65,6" transform="translate(-59.41 -8.11)" fill="url(#linear-gradient-5)"/><path d="M403.51,150.57l-33.72,6.12,13.88,41.18s23.05-5.84,25.67,10.06c2.38,14.51-18.95,9.76-18.95,9.76l12.87,41.14,37.45-8.51s5.32,17.26,13.73,20.11S472.1,267.64,470,257s-6.57-11.29-6.57-11.29l48.59-11.07L479.1,144.57Z" transform="translate(-59.41 -8.11)" fill="#087472"/><path d="M470,257c2.08,10.61-7.17,16.27-15.59,13.4s-13.74-20.08-13.74-20.08l-37.45,8.49-12.87-41.14s21.33,4.75,18.95-9.74c-2.6-15.93-25.67-10.08-25.67-10.08l-13.85-41.18,33.71-6.12L443,147.44l36.09-2.87,16.57,45.3,1.47,4,6,16.42L512,234.67l-48.58,11.06S468,246.41,470,257Z" transform="translate(-59.41 -8.11)" fill="url(#linear-gradient-6)"/><path d="M448.83,201.39l-5.48,8c3.58-.63,7.35.39,10.87-.51a26.31,26.31,0,0,0,4.89-2.1,87.15,87.15,0,0,1,12.2-4.45L488.63,197c2.89-.89,6.61-1.55,8.46.84l-4.44-19.24a4.92,4.92,0,0,0-1-2.38,4.5,4.5,0,0,0-2.72-1c-7.57-.94-16.36.79-22-4.37-2.76-2.54-4.39-6.52-7.92-7.79-3-1.07-6.35.27-8.78,2.3s-4.24,4.71-6.47,6.95c-8.27,8.28-21.92,10.25-28.58,19.88,11.44,2.61,21.81-8.56,33.54-8.77-3.37.06-9.81,6.36-12.42,8.4-2.85,2.25-8,5.19-8.21,9.22C427.51,211.74,444.58,203.34,448.83,201.39Z" transform="translate(-59.41 -8.11)" fill="url(#linear-gradient-7)"/><path d="M236.73,401.56l32.8,9.9,6.39-43s-29.25-7.28-18.28-20.65,21.32-.07,21.32-.07l7.26-42.49-39.69-10.34s8.05-14.19-.61-23.28c-6.12-6.43-17.15-5.59-20,4.85a36.47,36.47,0,0,0-1.29,13l-46.3-12.21L156.89,379.6Z" transform="translate(-59.41 -8.11)" fill="#087472"/><path d="M236.73,401.56l32.8,9.9,6.39-43s-29.25-7.28-18.28-20.65,21.32-.07,21.32-.07l7.26-42.49-39.69-10.34s8.05-14.19-.61-23.28c-6.12-6.43-17.15-5.59-20,4.85a36.47,36.47,0,0,0-1.29,13l-46.3-12.21L156.89,379.6Z" transform="translate(-59.41 -8.11)" fill="url(#linear-gradient-8)"/><path d="M171.74,381.14c8.12-14.79,14.66-30.87,26.49-42.91,1.69-1.72,4.44-3.41,6.29-1.85,1.54,1.3,1,3.75.38,5.65L199,359.37l12-19.67c2-3.21,4.19-6.64,7.73-7.92a4.23,4.23,0,0,1,3.33,0c1.76.9,2,3.25,2,5.22a69,69,0,0,1-1.94,15.87,61.43,61.43,0,0,1,12.26-14.76c1.78,1.31,2.06,3.83,2,6-.23,7.76-2.84,15.23-5.43,22.55-1.4,4-2.84,8-5.43,11.34-4.67,6-12.33,8.7-19.75,10.26s-15.12,2.28-22,5.48c-2.73,1.28-5.34,2.95-8.31,3.47-3.24.56-10.59-1.17-11.43-5.19C163.66,389.86,170.12,384.08,171.74,381.14Z" transform="translate(-59.41 -8.11)" fill="url(#linear-gradient-9)"/><path d="M467.2,337.93l7.36-33.47-43.35-3.08s-5,29.73-19.18,19.8-1.7-21.25-1.7-21.25l-42.92-4-7.28,40.35s-14.76-6.94-23.16,2.39c-5.94,6.6-4.27,17.53,6.36,19.55a36.4,36.4,0,0,0,13.06.3l-8.63,47.1,103.65,13.57Z" transform="translate(-59.41 -8.11)" fill="#087472"/><path d="M432.4,324.43c-2.39-1.05-6-2.09-7,.32-.51,1.2.08,2.55.65,3.71l6.4,12.86L417,335.53a4.67,4.67,0,0,0-3.22-.39c-2.48.93-1.66,4.61-.4,6.93l9.43,17.37c-4.18.61-8.18-4.68-12-2.78-3,1.5-2.5,5.89-1.24,9C415.12,379,426.49,389,434.58,401c2.8,4.14,5.28,9.32,3.41,13.94-.82,2-2.37,4.51-.88,6.12a4.29,4.29,0,0,0,2.51,1,86.81,86.81,0,0,0,24,.73q1.31-40.91,4-81.74c.16-2.42.29-5-.92-7.09a12.35,12.35,0,0,0-4.42-3.93c-3.83-2.42-7.6-5-11.53-7.28-4.3-2.49-5.4-1.35-5.2,3.45C441.35,327.23,436.28,326.14,432.4,324.43Z" transform="translate(-59.41 -8.11)" fill="url(#linear-gradient-10)"/><path d="M277.86,197c.07,1.92-2,3.32-3.89,3.25a10.55,10.55,0,0,1-5.17-2.19c-5.59-3.66-11.18-7.33-16.72-11-4.38-2.87-9-5.81-14.12-6.53,10.34,8.5,20.46,17.37,30.23,26.5,1.21,1.1,2.5,2.72,1.7,4.15a3.16,3.16,0,0,1-1.85,1.32c-4.75,1.48-9.62-1.58-13.81-4.19a124,124,0,0,0-26.73-12.57,179.76,179.76,0,0,1,24.05,18.5c1,.94,2.19,2.34,1.62,3.62a2.68,2.68,0,0,1-1.24,1.25c-3.52,1.85-7.67-.49-11-2.6a185,185,0,0,0-44.31-20.84c-.87-.27-2.19-.87-3.4-1.25a3.84,3.84,0,0,0-2.38-.15l-11.25,13.33-4.07-9.33c-7.36-18.57-11.52-39-23.67-54.35a51.81,51.81,0,0,0-3.51-4,110.61,110.61,0,0,0-11.48-10c-11.4-9.1-26.31-21.75-38.46-31.64,2.64-1.43,5.28-2.75,8-4.07C116.86,89,127.47,83.91,138.08,79c10.19,11.17,24.95,26.83,35,35.7,5.51,4.84,11.4,9.48,18.27,12.08,2.26.87,4.6,1.51,6.91,2.19a134.07,134.07,0,0,1,38.23,18.73c12.54,8.87,25.63,16.68,36.43,27.63a9.65,9.65,0,0,1,3,4.34c.46,1.73-.37,3.92-2.15,4.3-1.28.27-2.57-.53-3.66-1.24l-22.61-15c8.11,10.61,22,15.86,29.37,27A4.75,4.75,0,0,1,277.86,197Z" transform="translate(-59.41 -8.11)" fill="#775339"/><path d="M588.93,93.65c-.33.26-.64.53-1,.79q-18.68,14.9-37.4,29.78a111.9,111.9,0,0,0-11.48,10.05c-19.44,20.46-20.76,52.46-35.94,76.06l-6-16.42a3.93,3.93,0,0,0-.6-3.4,2.83,2.83,0,0,0-.87-.64c-1.36-.72-3.28-.34-4.87.19a186.38,186.38,0,0,0-44.31,20.8c-3.33,2.15-7.52,4.49-11,2.6a2.44,2.44,0,0,1-1.28-1.21c-.57-1.28.56-2.68,1.62-3.62a179.76,179.76,0,0,1,24.05-18.5,125.56,125.56,0,0,0-26.73,12.53c-4.19,2.65-9.06,5.67-13.78,4.19a2.93,2.93,0,0,1-1.88-1.28c-.76-1.43.49-3.06,1.69-4.15q14.67-13.75,30.28-26.5c-5.21.72-9.78,3.66-14.16,6.53l-16.68,11c-1.62,1.06-3.29,2.12-5.21,2.19s-4-1.35-3.89-3.24a4.75,4.75,0,0,1,1-2.38c7.36-11.14,21.25-16.42,29.37-27l-22.61,15c-1.1.72-2.38,1.51-3.66,1.21-1.74-.38-2.57-2.53-2.15-4.26s1.73-3.1,3-4.38C423,161,433,154.27,443,147.44c2.65-1.77,5.25-3.59,7.85-5.44a134.22,134.22,0,0,1,38.24-18.72c2.31-.68,4.65-1.32,6.91-2.19,6.87-2.6,12.76-7.25,18.27-12.08,10.08-8.87,19.21-18.72,28.2-28.65,5.17,1.85,10.42,3.59,15.7,5.1,6.76,2,15.85,2.57,23,5.17l1.47.57Z" transform="translate(-59.41 -8.11)" fill="#d9a677"/><path d="M251.74,358.52c-3,15.07-9.7,28.81-15.29,43.11a133.4,133.4,0,0,1-21.67,36.62c-1.55,1.85-3.17,3.66-4.57,5.62-4.3,6-6.71,13.06-8.64,20.12-2.38,8.76-5.47,24.42-8,38.69q-11.1.51-22.23,0c-2.8-.15-5.55-.34-8.31-.56q-5.55-.47-11.1-1.33c4.16-10.72,8.38-21.51,11-29.59A109.69,109.69,0,0,0,167,456.52c4.16-23-6.41-45.73-10.32-68.79,0,0,8.38,3.34,13.83,2,2-.49,4.91-4.8,6.19-6.39a184.89,184.89,0,0,0,25.64-41.71c1.58-3.62,3.81-7.85,7.73-8.23a2.72,2.72,0,0,1,1.74.34c1.21.76,1,2.53.64,3.93a178.14,178.14,0,0,1-9.93,28.65A124.39,124.39,0,0,0,218,341.2c2.08-4.53,4.46-9.74,9.21-11.1a3,3,0,0,1,2.31.08c1.43.75,1.24,2.83.86,4.37q-4.76,19.54-10.75,38.77c4-3.43,6.15-8.42,8.22-13.21q4-9.18,7.93-18.35c.76-1.77,1.59-3.58,3.13-4.68s4.08-1.05,5,.57a4.87,4.87,0,0,1,.52,2.53c-.07,13.36-8.75,25.36-9.74,38.69,3.55-8.34,7.1-16.65,10.65-25,.49-1.21,1.13-2.57,2.38-3,1.66-.64,3.55.72,4.15,2.38A9.77,9.77,0,0,1,251.74,358.52Z" transform="translate(-59.41 -8.11)" fill="#f1b475"/><path d="M597.61,459.12c.24,7.63-1.5,15.81-5.69,22a22.48,22.48,0,0,1-7.55,7,23.84,23.84,0,0,1-2.16,1.05c-13.79-11-28.44-22.67-37.23-29.35a130.41,130.41,0,0,0-14.79-10.19c-31-17.36-71-7.18-103.63-21.26-1.35-.56-2.87-1.43-3.09-2.87s.75-2.6,1.85-3.47c6-4.9,14.76-3.47,22.53-3,2,.15,4.46,0,5.63-1.66,1.4-2,.15-4.64-1.13-6.68A218.74,218.74,0,0,0,415.66,366c-3.44-3.21-7.28-7.28-6.19-11.86a3,3,0,0,1,1-1.81c1.33-1,3.21-.11,4.61.8a213,213,0,0,1,28.17,22.11,147,147,0,0,0-22.13-26.91c-4.26-4.07-9.13-8.72-8.84-14.61a3.54,3.54,0,0,1,1-2.53c1.39-1.32,3.62-.29,5.24.72q19.92,12.79,39.1,26.88c-2.34-5.71-7-10.09-11.62-14.27-5.81-5.28-11.58-10.61-17.41-15.93-1.66-1.52-3.39-3.14-4-5.28s.34-4.95,2.53-5.45a6,6,0,0,1,3,.46c14.86,5.18,24.95,19.52,39.4,25.74q-11.89-10.76-23.74-21.52c-1.17-1-2.42-2.26-2.49-3.84-.08-2.12,2.15-3.7,4.26-3.74s4.05,1.09,5.86,2.15c15.62,9.14,28.38,21.9,42.16,33.63a157.87,157.87,0,0,1,32.53,38.36c1.47,2.41,2.87,4.91,4.5,7.25,5,7.09,12,12.49,19.14,17.39,10.64,7.27,28.24,17.95,43,26.37C596.1,446.41,597.4,452.7,597.61,459.12Z" transform="translate(-59.41 -8.11)" fill="url(#linear-gradient-11)"/><path d="M193.91,193.79l-.72.68-13.63,13.18-4.07-9.33c-7.36-18.57-11.52-39-23.67-54.35.49.26,2,1.13,7,3.92,7.29,4.08,20.19,32.62,24.08,39A15.21,15.21,0,0,0,193.91,193.79Z" transform="translate(-59.41 -8.11)" fill="url(#linear-gradient-12)"/></svg>