<svg id="Layer_1" data-name="Layer 1" xmlns="http://www.w3.org/2000/svg" xmlns:xlink="http://www.w3.org/1999/xlink" viewBox="0 0 338.09 279.92"><defs><linearGradient id="linear-gradient" x1="71.66" y1="112.46" x2="196.28" y2="386.46" gradientUnits="userSpaceOnUse"><stop offset="0.01"/><stop offset="0.13" stop-opacity="0.69"/><stop offset="0.25" stop-opacity="0.32"/><stop offset="1" stop-opacity="0"/></linearGradient><linearGradient id="linear-gradient-2" x1="144.06" y1="75.65" x2="27.94" y2="251.52" xlink:href="#linear-gradient"/><linearGradient id="linear-gradient-3" x1="179.51" y1="161.58" x2="105.23" y2="204.17" xlink:href="#linear-gradient"/><linearGradient id="linear-gradient-4" x1="578.52" y1="176.22" x2="-131.9" y2="254.16" xlink:href="#linear-gradient"/><linearGradient id="linear-gradient-5" x1="121.29" y1="20.93" x2="582.82" y2="361.01" gradientUnits="userSpaceOnUse"><stop offset="0.01" stop-color="#fff"/><stop offset="0.13" stop-color="#fff" stop-opacity="0.69"/><stop offset="0.15" stop-color="#fff" stop-opacity="0.61"/><stop offset="0.2" stop-color="#fff" stop-opacity="0.47"/><stop offset="0.25" stop-color="#fff" stop-opacity="0.34"/><stop offset="0.3" stop-color="#fff" stop-opacity="0.23"/><stop offset="0.36" stop-color="#fff" stop-opacity="0.15"/><stop offset="0.44" stop-color="#fff" stop-opacity="0.08"/><stop offset="0.52" stop-color="#fff" stop-opacity="0.03"/><stop offset="0.65" stop-color="#fff" stop-opacity="0.01"/><stop offset="1" stop-color="#fff" stop-opacity="0"/></linearGradient><linearGradient id="linear-gradient-6" x1="9.73" y1="30.83" x2="417.42" y2="331.24" xlink:href="#linear-gradient-5"/><linearGradient id="linear-gradient-7" x1="18.3" y1="138.06" x2="479.83" y2="478.14" xlink:href="#linear-gradient-5"/></defs><title>10</title><path d="M352.8,208.46c-.66,11.57-2,23.32-6.66,33.92-8.51,19.39-27.5,32.79-47.84,38.69a108.4,108.4,0,0,1-15.78,3.28c-15.58,2.11-31.61,1.19-47.27-.74-13.44-1.66-26.8-4.06-40.22-5.9-7.56-1-15.15-1.9-22.76-2.35-14.57-.85-29.17-.21-43.73.84-.68,0-1.37.09-2,.15-13.23,1-26.67,2.27-39.76.67a77.46,77.46,0,0,1-9-1.6q-2.29-.54-4.53-1.26c-15.05-4.77-28.25-14.78-39.86-25.11-11.95-10.63-17.55-27.11-18.09-42.77-.64-18.44-3.14-49.23,59.42-99.73C87.86,95.89,86.75,75,93,59.26c9-22.57,27.44-41.82,50.61-49.15,10-3.18,20.63-4.13,31.14-4a164.34,164.34,0,0,1,39.6,5.18c24.44,6.25,53.44,18.94,71.87,38.43a76.7,76.7,0,0,1,8.6,10.83c15.7,24.08,13.93,55.41,30.09,79.34,7,10.33,17,18.55,22.56,29.72C353.4,181.41,353.56,195.24,352.8,208.46Z" transform="translate(-15.03 -6.05)" fill="#087472" opacity="0.18" style="isolation:isolate"/><path d="M128.54,276.2c-.68,0-1.37.09-2,.15-13.23,1-26.67,2.27-39.76.67a77.46,77.46,0,0,1-9-1.6q-2.29-.54-4.53-1.26C71.91,231.5,108.54,175,113,168.22l13.73.58,43.39,1.83C130.89,207.87,127.21,252.66,128.54,276.2Z" transform="translate(-15.03 -6.05)" fill="#087472"/><path d="M128.54,276.2c-.68,0-1.37.09-2,.15-13.23,1-26.67,2.27-39.76.67a77.46,77.46,0,0,1-9-1.6q-2.29-.54-4.53-1.26C71.91,231.5,108.54,175,113,168.22l13.73.58,43.39,1.83C130.89,207.87,127.21,252.66,128.54,276.2Z" transform="translate(-15.03 -6.05)" fill="url(#linear-gradient)"/><path d="M128,167.56c-.44.41-.87.82-1.29,1.24C86.47,208,84.83,255.05,86.73,277a77.46,77.46,0,0,1-9-1.6q-2.29-.54-4.53-1.26C71.91,231.5,108.54,175,113,168.22l.45-.66Z" transform="translate(-15.03 -6.05)" fill="#087472"/><path d="M228.07,77c-1.64,3-1.13,6.62-1.85,9.93a22.38,22.38,0,0,1-.82,2.76c-1.26,3.62-2.85,7.34-5.88,9.69a6,6,0,0,0-2.23,2.26,3.19,3.19,0,0,0,.51,2.89,9.52,9.52,0,0,0,2.24,2c-.17,1.73-.12,3.78-.3,5.5-.39,3.81-.64,8.1,1.88,11,2,2.23,5.08,3,8,3.34s6,.52,8.62,2c5.52,3.07,7,10.87,12.49,14a13.8,13.8,0,0,0,5.27,1.55,18.08,18.08,0,0,0,11.29-2.08c3.35-2,14.31-5.26,11.34-7.79-3.24-2.75-8.21-10.55-10.53-14.7a45.36,45.36,0,0,1-5.19-14.86c-.7-4.35-.77-8.77-1.42-13.12s-2-8.75-4.79-12.13c-4.21-5-11.09-7-17.63-7.37a15.82,15.82,0,0,0-5.45.4,6.7,6.7,0,0,0-4.23,3.27" transform="translate(-15.03 -6.05)" fill="#f9ba9f"/><path d="M292.51,97.44a21.2,21.2,0,0,1-1.89,6.67,13,13,0,0,1-2.41,3.86c-2,1.78-2.06,4.79-3.29,7.14a11.56,11.56,0,0,1-3.41,3.79,21.28,21.28,0,0,1-19.82,2.91l-1-.38a46.29,46.29,0,0,1-8.31-5A1.1,1.1,0,0,1,252,116c-.17-.42.19-.84.51-1.17a11.5,11.5,0,0,0,3.26-8.2,5.6,5.6,0,0,0-1.13-3.6,2.84,2.84,0,0,0-3.46-.76c-1,.57-2,1.93-2.86,1.2a1.7,1.7,0,0,1-.44-1A24.73,24.73,0,0,0,246.13,96a25.09,25.09,0,0,0-4.3-5.42A50.74,50.74,0,0,1,232.57,76a2.16,2.16,0,0,0-.84-1.19,2.2,2.2,0,0,0-1.22-.16,35.67,35.67,0,0,1-5.47-.1,4.17,4.17,0,0,1-2.56-.88c-1.24-1.19-.68-3.31.32-4.7,2.27-3.19,6.06-4.86,9.67-6.37-.93-.61-2.4-1.95-3.33-2.56a1.7,1.7,0,0,1-.74-.76c-.2-.62.4-1.22,1-1.52a5.66,5.66,0,0,1,3.39-.55c-.17-2.76-3.13-5.32-2-7.84.77-1.66,3-2.09,4.78-1.65s3.32,1.53,5.05,2.11c.39-1.21-.69-2.47-.49-3.73A2.47,2.47,0,0,1,242,44.26a5.56,5.56,0,0,1,2.77.16,14.44,14.44,0,0,1,5.68,3,16.64,16.64,0,0,0,3.23,2.65c2.34,1.21,5.15.54,7.78.54a25.26,25.26,0,0,1,9,2.05A54.27,54.27,0,0,1,276,55.1a32,32,0,0,1,6.67,4.44c5.12,4.5,8.32,10.91,9.73,17.57A56.91,56.91,0,0,1,292.51,97.44Z" transform="translate(-15.03 -6.05)" fill="#ff681c"/><polygon points="44.59 59.39 49.69 54.05 170.9 59.39 199.08 159.23 193.98 164.57 67.42 164.57 44.59 59.39" fill="#087472"/><polygon points="44.59 59.39 49.69 54.05 170.9 59.39 199.08 159.23 193.98 164.57 67.42 164.57 44.59 59.39" fill="url(#linear-gradient-2)"/><polygon points="49.69 54.05 176 54.05 199.08 159.23 72.52 159.23 49.69 54.05" fill="#087472"/><polygon points="54.79 57.64 172.48 57.64 193.98 155.64 76.06 155.64 54.79 57.64" fill="#fff"/><path d="M161.68,202.06a4.27,4.27,0,0,1-2.35,3.33c-1.84,1.08-4.09,1.14-6.23,1.17a10.24,10.24,0,0,1-4.38-.57,11.6,11.6,0,0,1-3.17-2.51c-5.2-5-12.11-8.79-14.69-15.5-1.25-3.26-1.31-6.83-1.35-10.3,0-3.69,0-7.74,2.45-10.51,1.91-2.19,5.07-3.3,6.31-5.93a23.47,23.47,0,0,1-5.62-4.41,8,8,0,0,1-2-6.62,39.45,39.45,0,0,1,8.27,3.87,41.61,41.61,0,0,1,18.76,26.45c1,4.81,1.1,9.81,2.42,14.56C160.69,197.29,161.94,199.85,161.68,202.06Z" transform="translate(-15.03 -6.05)" fill="#f9ba9f"/><path d="M161.68,202.06a3.71,3.71,0,0,0-1.25.91c-1.35,2-4.68,1.49-6.38-.26s-2.36-4.22-3.52-6.37c-2.9-5.45-9.18-9.55-9.16-15.72,0-4.77,4-9,3.64-13.69-.2-2.48-1.55-4.5-3-6.38a23.56,23.56,0,0,1-3.07-6.47,41.61,41.61,0,0,1,18.76,26.45c1,4.81,1.1,9.81,2.42,14.56C160.69,197.29,161.94,199.85,161.68,202.06Z" transform="translate(-15.03 -6.05)" fill="url(#linear-gradient-3)"/><path d="M289.21,266.84c-1.23,6.15-3.07,12.51-6.69,17.51-.52.07-1,.14-1.56.19q-4.68.57-9.4.81a210.1,210.1,0,0,1-36.31-1.74c-13.44-1.66-26.8-4.06-40.22-5.9a10.6,10.6,0,0,1,2.14-1.85,34.1,34.1,0,0,0,13.7-25.48,5.13,5.13,0,0,0-2.68-.86c-2.54-.24-5.81.31-7.68.08-15.54-1.95-54.65-40.08-54.65-40.08l19.43-9.72,28.91,9.72s31.09-48.82,43.72-62.83,35.41-14.3,35.41-14.3a25.46,25.46,0,0,1,8.08,1,0,0,0,0,1,0,0c15.48,4.53,23.46,23.3,24.5,39.19C308,203.84,295.25,236.69,289.21,266.84Z" transform="translate(-15.03 -6.05)" fill="#fff"/><path d="M292.51,97.44a21.2,21.2,0,0,1-1.89,6.67,13,13,0,0,1-2.41,3.86c-2,1.78-2.06,4.79-3.29,7.14a11.56,11.56,0,0,1-3.41,3.79,21.28,21.28,0,0,1-19.82,2.91l-1-.38a8.8,8.8,0,0,1-1-2.17l4-.14a6,6,0,0,0-1.6-3.76l9.11-.18a5.68,5.68,0,0,0,5.95-3.55c1.38-2.14,2.81-4.48,2.58-7a11.58,11.58,0,0,0-1.53-4.19c-2-3.91-4-8-4.56-12.33s.73-9.22,4.22-11.92a7.36,7.36,0,0,0,1.92-1.72,4.13,4.13,0,0,0,.44-2.69c-.46-4.18-3.71-7.43-6.77-10.33L266.68,55c.76.73,4.22.82,5.35,1.18a55.79,55.79,0,0,1,5.59,2.26c-.28-.83-1-2-1.63-3.34a32,32,0,0,1,6.67,4.44c5.12,4.5,8.32,10.91,9.73,17.57A56.91,56.91,0,0,1,292.51,97.44Z" transform="translate(-15.03 -6.05)" fill="#d45319"/><path d="M289.21,266.84c-1.23,6.15-3.07,12.51-6.69,17.51-.52.07-1,.14-1.56.19-13.93,1.39-27,2.55-40.84-.48-2.15-.47-4.69-1.41-5.07-3.58a5.9,5.9,0,0,1,.92-3.56c9.48-19.14,15.55-41.34,15.29-62.8-5.16-.65-11.53,9.34-15.29,12.75l-13.83,12.54c-6,5.4-12.9,11.16-20.91,10.53-4.72-.37-8.94-2.94-13-5.44L174,235.58c-4.19-2.61-8.74-5.7-9.84-10.52,6.69.51,12.55,4.39,18.55,7.38s13.23,5.18,19.26,2.25c4.34-2.11,7.1-6.42,9.68-10.49a771.88,771.88,0,0,1,55.63-77c4.85-5.91,5.66-14.72,14.16-13.77a0,0,0,0,1,0,0c15.48,4.53,23.46,23.3,24.5,39.19C308,203.84,295.25,236.69,289.21,266.84Z" transform="translate(-15.03 -6.05)" fill="url(#linear-gradient-4)"/><path d="M98.82,83.07a12.42,12.42,0,0,1,3.88-3.29,16.6,16.6,0,0,1,5.59-2.09A15.41,15.41,0,0,1,122,83a21.14,21.14,0,0,1,4.8,14.26,3.06,3.06,0,0,1,3.64,1.38,6.84,6.84,0,0,1,.7,4.12,6.44,6.44,0,0,1-1,3.34,2.86,2.86,0,0,1-3.08,1.19,9.93,9.93,0,0,1-1.88,8.43c-.78,1-1.79,1.89-2,3.12-.2,1.54,1,2.94,2.44,3.61a38.83,38.83,0,0,0,4.46,1.31,14.17,14.17,0,0,1,7.55,6.8,41.83,41.83,0,0,1,3.49,9.77c.18.68.32,1.51-.2,2a1.9,1.9,0,0,1-1.29.35l-39.61,1.23c-.45-4.59-.71-9.78,2.38-13.21,2.39-2.64,6.15-3.45,9.65-4.13a14.23,14.23,0,0,0-1.39-5.84,3.4,3.4,0,0,0-1.09-1.44,5.5,5.5,0,0,0-1.69-.55c-3.89-1-6-5.19-7-9.08a6.11,6.11,0,0,0-.74-2,6,6,0,0,0-2.12-1.65c-4.83-2.77-5.84-5.86-2.36-10C98.79,92.44,95.78,87.26,98.82,83.07Z" transform="translate(-15.03 -6.05)" fill="#087472" opacity="0.18" style="isolation:isolate"/><polygon points="11.4 22.45 28.05 104.88 77.78 104.88 63.69 22.45 11.4 22.45" fill="#087472" opacity="0.32"/><polygon points="26.63 134.74 43.27 217.18 93 217.18 78.91 134.74 26.63 134.74" fill="#087472" opacity="0.32"/><polygon points="128.07 22.45 144.71 104.88 194.44 104.88 180.35 22.45 128.07 22.45" fill="#087472" opacity="0.32"/><polygon points="133.34 13.99 149.98 96.42 199.71 96.42 185.62 13.99 133.34 13.99" fill="url(#linear-gradient-5)"/><polygon points="20.38 24.7 35.08 97.51 79 97.51 66.56 24.7 20.38 24.7" fill="url(#linear-gradient-6)"/><polygon points="30.35 131.12 46.99 213.55 96.72 213.55 82.63 131.12 30.35 131.12" fill="url(#linear-gradient-7)"/></svg>