<svg width="178" height="179" xmlns="http://www.w3.org/2000/svg" xmlns:xlink="http://www.w3.org/1999/xlink" overflow="hidden"><defs><filter id="fx0" x="-10%" y="-10%" width="120%" height="120%" filterUnits="userSpaceOnUse" primitiveUnits="userSpaceOnUse"><feComponentTransfer color-interpolation-filters="sRGB"><feFuncR type="discrete" tableValues="0 0"/><feFuncG type="discrete" tableValues="0 0"/><feFuncB type="discrete" tableValues="0 0"/><feFuncA type="linear" slope="0.4" intercept="0"/></feComponentTransfer><feGaussianBlur stdDeviation="2.22222 2.22222"/></filter><clipPath id="clip1"><rect x="287" y="454" width="178" height="179"/></clipPath><clipPath id="clip2"><rect x="-2" y="-2" width="183" height="183"/></clipPath><clipPath id="clip3"><rect x="0" y="0" width="180" height="180"/></clipPath></defs><g clip-path="url(#clip1)" transform="translate(-287 -454)"><g clip-path="url(#clip2)" filter="url(#fx0)" transform="translate(286 453)"><g clip-path="url(#clip3)"><path d="M8.39999 90C8.39999 44.9336 44.9336 8.39999 90 8.39999 135.066 8.39999 171.6 44.9336 171.6 90 171.6 135.066 135.066 171.6 90 171.6 44.9336 171.6 8.39999 135.066 8.39999 90Z" fill="#06BAB3" fill-rule="evenodd"/></g></g><path d="M296 543C296 498.817 331.817 463 376 463 420.183 463 456 498.817 456 543 456 587.183 420.183 623 376 623 331.817 623 296 587.183 296 543Z" fill="#06BAB3" fill-rule="evenodd"/><path d="M341.222 522 329 522C329 545.838 348.155 565.167 371.778 565.167L371.778 592.917C371.778 594.612 373.153 596 374.833 596L380.944 596C382.625 596 384 594.612 384 592.917L384 565.167C384 541.329 364.845 522 341.222 522Z" fill="#FFFFFF" fill-rule="evenodd"/><path d="M414.925 511C399.038 511 385.226 519.766 378 532.716 383.226 538.409 387.094 545.328 389.132 553 410.396 550.794 427 532.848 427 511L414.925 511Z" fill="#FFFFFF" fill-rule="evenodd"/><path d="M373.855 528.189C375.134 525.223 376.752 522.457 378.679 519.936 380.864 516.808 383.365 514.169 385.977 511.908 381.537 502.817 374.632 495.395 367.024 491.46 366.329 491.1 365.339 491.315 364.854 491.931 359.565 498.662 356.357 508.271 356.08 518.378 359.345 519.337 362.657 520.678 365.879 522.581 368.772 524.131 371.45 526.014 373.855 528.189Z" fill="#FFFFFF" fill-rule="evenodd"/></g></svg>