<svg id="Layer_1" data-name="Layer 1" xmlns="http://www.w3.org/2000/svg" xmlns:xlink="http://www.w3.org/1999/xlink" viewBox="0 0 376.4 338.87"><defs><linearGradient id="linear-gradient" x1="363.66" y1="140.54" x2="382.2" y2="140.54" gradientUnits="userSpaceOnUse"><stop offset="0" stop-color="#e5c5d5"/><stop offset="0.42" stop-color="#ead4d1"/><stop offset="1" stop-color="#f0e9cb"/></linearGradient><linearGradient id="linear-gradient-2" x1="373.97" y1="130.06" x2="374.03" y2="155.23" gradientUnits="userSpaceOnUse"><stop offset="0" stop-opacity="0"/><stop offset="0.99"/></linearGradient><linearGradient id="linear-gradient-3" x1="358.42" y1="116.8" x2="389.33" y2="116.8" xlink:href="#linear-gradient"/><linearGradient id="linear-gradient-4" x1="395.77" y1="132.8" x2="409.31" y2="132.8" xlink:href="#linear-gradient"/><linearGradient id="linear-gradient-5" x1="111.04" y1="135.65" x2="137.83" y2="135.65" xlink:href="#linear-gradient"/><linearGradient id="linear-gradient-6" x1="114.57" y1="156.41" x2="127.69" y2="156.41" xlink:href="#linear-gradient"/><linearGradient id="linear-gradient-7" x1="1101.78" y1="437.2" x2="1114.89" y2="437.2" gradientTransform="translate(-902.51 -110.64) rotate(-11.04)" gradientUnits="userSpaceOnUse"><stop offset="0" stop-color="#867580"/><stop offset="0.57" stop-color="#9b8f8e"/></linearGradient><linearGradient id="linear-gradient-8" x1="269.11" y1="94.3" x2="269.7" y2="124.43" xlink:href="#linear-gradient-2"/><linearGradient id="linear-gradient-9" x1="254.67" y1="84.18" x2="284.26" y2="84.18" gradientTransform="matrix(1, 0, 0, 1, 0, 0)" xlink:href="#linear-gradient-7"/><linearGradient id="linear-gradient-10" x1="172.49" y1="317.19" x2="174.85" y2="2.37" gradientUnits="userSpaceOnUse"><stop offset="0.02" stop-color="#fff" stop-opacity="0"/><stop offset="0.32" stop-color="#fff" stop-opacity="0.39"/><stop offset="0.68" stop-color="#fff" stop-opacity="0.68"/><stop offset="1" stop-color="#fff"/></linearGradient><linearGradient id="linear-gradient-11" x1="262.37" y1="289.67" x2="285.06" y2="257.05" xlink:href="#linear-gradient-2"/><linearGradient id="linear-gradient-12" x1="213.18" y1="290.12" x2="170.32" y2="266.8" xlink:href="#linear-gradient-2"/><linearGradient id="linear-gradient-13" x1="155.13" y1="285.17" x2="205.92" y2="285.17" xlink:href="#linear-gradient"/><linearGradient id="linear-gradient-14" x1="259.81" y1="286.07" x2="309.46" y2="286.07" xlink:href="#linear-gradient"/><linearGradient id="linear-gradient-15" x1="221.6" y1="264.87" x2="244.73" y2="264.87" xlink:href="#linear-gradient"/><linearGradient id="linear-gradient-16" x1="213.38" y1="243.04" x2="252.09" y2="243.04" xlink:href="#linear-gradient"/><linearGradient id="linear-gradient-17" x1="225.68" y1="257.5" x2="241.05" y2="257.5" xlink:href="#linear-gradient"/></defs><title>Team Meeting Online</title><path d="M429.17,231.09c-2.36,11.83-60.36,73-112.65,102.59h0c-10.37,5.86-20.51,10.48-29.95,13.22-34.71,10.05-83.73,7-116.83,3.07-14.66-1.74-26.2-3.65-32-4.69-2.62-.46-4.06-.74-4.06-.74-15-1.92-28.1-11.46-37.55-23.21S80.39,295.65,74.2,281.89C68.49,269.17,62.73,256.32,60,242.65c-2.05-10.3-2.32-20.86-2.27-31.35.13-24.56,2.59-50.71,17.64-70.11,17-21.86,46.19-30.42,65.81-49.93,11.05-11,18.59-25,28.85-36.73,12.37-14.14,28.44-24.62,45.38-32.76,8.3-4,17.24-7.53,26.43-6.89a39.73,39.73,0,0,1,8.52,1.65c17.7,5.22,30.65,20.14,34.4,38.22,4.43,21.41,21.39,49.69,75.28,68.59C457.05,157.37,432,216.91,429.17,231.09Z" transform="translate(-57.74 -14.81)" fill="#087472" opacity="0.18" style="isolation:isolate"/><rect x="277.96" y="73.69" width="73.93" height="82.46" rx="10.29" fill="#087472" opacity="0.18" style="isolation:isolate"/><rect x="31.64" y="78.31" width="73.93" height="82.46" rx="10.29" fill="#087472" opacity="0.18" style="isolation:isolate"/><path d="M335.63,158.22c2.69-4.86,5.52-9.87,10-13.16,5.05-3.72,11.55-4.76,17.8-5.16a110.76,110.76,0,0,1,26.78,1.53,28.24,28.24,0,0,1,4.95,1.24c3.93,1.47,7.14,4.38,10,7.49A13.44,13.44,0,0,1,407.8,154a13.67,13.67,0,0,1,.36,6.82c-.3,2.34-.74,4.78-2.17,6.66-2.33,3.1-6.61,3.89-10.48,4.06-7.6.33-15.2-.85-22.8-.46-2.83.14-5.66.5-8.49.68a129.85,129.85,0,0,1-17.19-.48c-2.5-.18-5.13-.41-7.21-1.82a9.67,9.67,0,0,1-3.77-6.46,28.48,28.48,0,0,1,.05-7.66" transform="translate(-57.74 -14.81)" fill="#087472"/><path d="M367.17,132a13.22,13.22,0,0,1-1.65,5c-.76,1.29-1.78,2.51-1.85,4.13a7,7,0,0,0,.61,2.79,25,25,0,0,0,4.41,8.11,9.47,9.47,0,0,0,10,3,6.22,6.22,0,0,0,2.41-1.4c2.21-2.14.61-6.38-.36-9.84-1.26-4.49.73-11.1,0-13.85a6.59,6.59,0,0,0-1.65-3.23,4.2,4.2,0,0,0-3.52-.91c-3.89.49-7.5,3.78-9.2,8.38" transform="translate(-57.74 -14.81)" fill="url(#linear-gradient)"/><path d="M375.62,141.31c1.46.22,3.18-.05,4-1.28a4.86,4.86,0,0,0,.58-2.44l.29-4.85a5.2,5.2,0,0,1-3,.77c-1.71.06-3.43.08-5.14.06-1.13,0-3.46-.56-4.43.21-1.61,1.29,2.62,5.15,3.65,5.88A9.64,9.64,0,0,0,375.62,141.31Z" transform="translate(-57.74 -14.81)" fill="url(#linear-gradient-2)"/><path d="M360,122.93a21.15,21.15,0,0,0,1.7,5,19.4,19.4,0,0,0,3,4,14.71,14.71,0,0,0,4.3,3.44,15.06,15.06,0,0,0,6.5,1.06,13.23,13.23,0,0,0,4.43-.61c3.1-1.13,5.08-4.17,6.45-7.18a31.64,31.64,0,0,0,3-12.59,23.38,23.38,0,0,0-3.24-12.45,13.09,13.09,0,0,0-4.72-4.8,15.48,15.48,0,0,0-7.52-1.54,16.86,16.86,0,0,0-4.8.55,15.45,15.45,0,0,0-6.44,4.17,13.88,13.88,0,0,0-2.68,3.56C357.24,110.91,358.7,117.36,360,122.93Z" transform="translate(-57.74 -14.81)" fill="url(#linear-gradient-3)"/><path d="M360.93,114.74a30.45,30.45,0,0,1-.87,8.61,19.91,19.91,0,0,1-3.42-6.84,22,22,0,0,1-1.14-4.11,22.45,22.45,0,0,1-.13-3.67,10.81,10.81,0,0,1,.27-2.61A3.62,3.62,0,0,1,357.1,104a2.91,2.91,0,0,0,.79-.54,2.2,2.2,0,0,0,.33-1c.32-2.33,1.53-4.7,3.68-5.65a21.75,21.75,0,0,1,3.62-1.46A33.35,33.35,0,0,1,380.46,95c2.64.55,5.35,1.51,7.09,3.57a12.85,12.85,0,0,1,2.43,5.71,2.3,2.3,0,0,1-.17,2,4.77,4.77,0,0,0-.61.66,1.65,1.65,0,0,0-.06,1.14c.72,4.2.49,8.82-2,12.29a72.66,72.66,0,0,0-.89-10.82,3,3,0,0,0-.46-1.39c-.74-1-2.26-.82-3.5-.63a23.31,23.31,0,0,1-13.52-1.92,7.7,7.7,0,0,0-2.41-.88,2.16,2.16,0,0,0-2.19,1,12.62,12.62,0,0,0-.37,1.85,7.08,7.08,0,0,1-1.57,2.15A8,8,0,0,0,360.93,114.74Z" transform="translate(-57.74 -14.81)" fill="#3e3e54"/><path d="M398.67,150.07a4.4,4.4,0,0,1,.82-3.24,4.08,4.08,0,0,1,2.63-.86,38.87,38.87,0,0,1,5.71.05,1.72,1.72,0,0,1,.9.26,1.7,1.7,0,0,1,.48,1.16,53.18,53.18,0,0,1,.42,9.44,19.54,19.54,0,0,1-2.22,9.18,12,12,0,0,1-4.1,4.1c-1.27.78-4,2.2-5.52,1.5-1.78-.81-.67-3.62-.43-5q.66-3.85,1-7.76C398.6,156,398.7,153,398.67,150.07Z" transform="translate(-57.74 -14.81)" fill="#087472"/><path d="M401.43,139.92a14.78,14.78,0,0,0-2.55-3.61,28.58,28.58,0,0,1-2.68-3.77,1.77,1.77,0,0,1-.35-1.57c.32-.71,1.37-.69,2-.33,1,.56,2,1.68,3.12,1.3s1.21-1.77,1.05-2.87c-.53-3.68-2.57-7.44-1.25-10.92a24.51,24.51,0,0,1,3.48,6.27,1.33,1.33,0,0,0,.84-1.24,5.72,5.72,0,0,0-.29-1.57,8.42,8.42,0,0,1,.26-4.79,6.18,6.18,0,0,1,2.24,3.31c2.44,6.7,2.07,14.05,1.68,21.17a20.8,20.8,0,0,1-.51,4.09A4.56,4.56,0,0,1,407,148c-1.19.89-4.49,1.3-5.1-.4-.37-1,.1-2.8.11-3.89A9.44,9.44,0,0,0,401.43,139.92Z" transform="translate(-57.74 -14.81)" fill="url(#linear-gradient-4)"/><path d="M136.4,105A25.43,25.43,0,0,0,130,102.3a19.93,19.93,0,0,0-16.55,3.93,26.71,26.71,0,0,0-9.13,14.65c-1.48,5.9-1.27,12.17-3.08,18-1.2,3.83-3.23,7.34-4.59,11.11s-2,8.07-.36,11.73,5.24,6,9.06,7.14,7.85,1.08,11.82,1.05l9.66-.08c6.13,0,13-.37,17.24-4.75,3.48-3.55,4.34-8.95,4-13.91s-1.59-9.85-1.66-14.82C146.29,124.52,148.3,111.68,136.4,105Z" transform="translate(-57.74 -14.81)" fill="#3e3e54"/><path d="M98.63,158.84c2.93-2.6,7.09-3.26,11-3.39A101.14,101.14,0,0,1,127.91,157a44.94,44.94,0,0,1,7.1,1.46c7.8,2.48,13.7,8.76,19.22,14.8a2.34,2.34,0,0,1,.72,1.27c.08,1.18-1.48,1.64-2.66,1.68-14.69.57-29.42-1-44.1-.2-4.46.24-13.17,1.28-15.52-3.91C90.89,168.15,95.89,161.28,98.63,158.84Z" transform="translate(-57.74 -14.81)" fill="#087472"/><path d="M123.64,126.55a17.26,17.26,0,0,1-4.17,1.42c-2.4.4-4.86-.16-7.29,0a.71.71,0,0,0-.41.12.65.65,0,0,0-.16.45,66.21,66.21,0,0,0-.38,13,16.63,16.63,0,0,0,1.31,5.3,12.09,12.09,0,0,0,11.91,6.6,13.9,13.9,0,0,0,11.08-8.3,26.42,26.42,0,0,0,1.72-8c.34-3.49.54-7,.58-10.48a5.86,5.86,0,0,1-2.7-4.3,15,15,0,0,1,.14-4.43C132.27,122,128.31,124.48,123.64,126.55Z" transform="translate(-57.74 -14.81)" fill="url(#linear-gradient-5)"/><path d="M126.46,161a6.52,6.52,0,0,1-3.26,4,6.68,6.68,0,0,1-5.63-.42,5.3,5.3,0,0,1-2.43-2.17,6,6,0,0,1-.54-2.52,21,21,0,0,1,.33-4.88c.44-2.41,1.39-4.87,3.35-6.35,2.17-1.64,7-1.94,8.62.72S127.36,158.36,126.46,161Z" transform="translate(-57.74 -14.81)" fill="url(#linear-gradient-6)"/><rect x="174.29" y="28.07" width="73.93" height="82.46" rx="10.29" fill="#087472" opacity="0.18" style="isolation:isolate"/><path d="M241.28,108.6c2.93-2.6,7.09-3.26,11-3.38a86.47,86.47,0,0,1,17.15,1.34c5.46.93,11.13.83,16.68,1.06,2,.08,4.23.26,5.63,1.7a8,8,0,0,1,1.51,2.68l1.41,3.51c1,2.48,4.72,8.52,1.56,10.23-1.68.91-5.2.32-7.08.33-2.51,0-5,0-7.54-.07-10.25-.22-20.51-.83-30.76-.26-4.46.25-13.17,1.28-15.52-3.9C233.54,117.91,238.54,111,241.28,108.6Z" transform="translate(-57.74 -14.81)" fill="#087472"/><path d="M270.91,51.46a10,10,0,0,1,10-.38,7.41,7.41,0,0,1,2.7,2.33,11.44,11.44,0,0,1,1.52,5.31,110,110,0,0,1,.37,19.12c-.39,5.82-1.23,11.78.3,17.41a28,28,0,0,1-9.28-10.06,68.47,68.47,0,0,1-5.33-12.74c-1.35-4.08-2.37-8.26-4.15-12.16C265.57,57.08,268.22,53.18,270.91,51.46Z" transform="translate(-57.74 -14.81)" fill="#3e3e54"/><path d="M275.14,109.76a6.49,6.49,0,0,1-2.44,4.5,6.64,6.64,0,0,1-5.61.67,5.27,5.27,0,0,1-2.8-1.66,6.26,6.26,0,0,1-1-2.37,21.47,21.47,0,0,1-.61-4.85c0-2.45.44-5,2.07-6.87,1.83-2,6.48-3.25,8.6-1S275.51,107,275.14,109.76Z" transform="translate(-57.74 -14.81)" fill="url(#linear-gradient-7)"/><path d="M264.43,105.8a5.94,5.94,0,0,0,3.38,2.5,11.47,11.47,0,0,0,3,.25,3.67,3.67,0,0,0,1-.11,2.63,2.63,0,0,0,.73-.41,6.4,6.4,0,0,0,2.51-6c0-.22-4.09-.5-4.5-.54a41.46,41.46,0,0,0-4.59-.2c-.88,0-2.17-.09-2.49.95S263.86,104.9,264.43,105.8Z" transform="translate(-57.74 -14.81)" fill="url(#linear-gradient-8)"/><path d="M254.7,77.85a56.91,56.91,0,0,0,1.08,12,20.36,20.36,0,0,0,5.65,10.47,14.11,14.11,0,0,0,9.85,3.81,12.09,12.09,0,0,0,9.32-4.74c1.86-2.5,2.58-5.65,3-8.73a62.66,62.66,0,0,0,.23-16.13,12.56,12.56,0,0,0-1.1-4.37A10.82,10.82,0,0,0,277,65.53a21.06,21.06,0,0,0-11.85-.87c-8.91,1.68-9.73,8.07-10.3,8.41A29.61,29.61,0,0,0,254.7,77.85Z" transform="translate(-57.74 -14.81)" fill="url(#linear-gradient-9)"/><path d="M250.66,70.26A14.41,14.41,0,0,1,257,59.12c3.69-2.36,8.28-2.71,12.65-2.78,4.6-.08,9.45.13,13.36,2.56a15.09,15.09,0,0,1,6.72,12.84,17.08,17.08,0,0,1-5.38,12.19c-.8-1.13-1-2.56-1.56-3.82a15.05,15.05,0,0,0-2.22-3.34L276.72,72a2.24,2.24,0,0,0-.51-.51,2.13,2.13,0,0,0-1.35-.13A93.91,93.91,0,0,1,262.2,72c-1.64,0-3.47,0-4.67,1.08-1.52,1.44-.81,7.7-3.66,7.28-1.4-.2-2.12-3.06-2.47-4.19A16.38,16.38,0,0,1,250.66,70.26Z" transform="translate(-57.74 -14.81)" fill="#3e3e54"/><circle cx="205.32" cy="70.38" r="4.14" fill="none" stroke="#fff" stroke-miterlimit="10" stroke-width="0.84"/><circle cx="217.84" cy="70.38" r="4.14" fill="none" stroke="#fff" stroke-miterlimit="10" stroke-width="0.84"/><polygon points="172.76 177.47 171.31 177.47 171.31 146.18 216.81 146.18 216.81 112.07 218.26 112.07 218.26 147.63 172.76 147.63 172.76 177.47" fill="#087472"/><polygon points="187.34 175.34 185.88 175.34 185.88 168.57 305.75 168.57 305.75 156.99 307.2 156.99 307.2 170.03 187.34 170.03 187.34 175.34" fill="#087472"/><polygon points="159.25 177.12 157.8 177.12 157.8 171.8 65.39 171.8 65.39 161.48 66.84 161.48 66.84 170.35 159.25 170.35 159.25 177.12" fill="#087472"/><path d="M137.93,175.7h70.14A10.89,10.89,0,0,1,219,186.58V287.46a9.88,9.88,0,0,1-9.88,9.88H137.6A10.37,10.37,0,0,1,127.23,287V186.4A10.7,10.7,0,0,1,137.93,175.7Z" fill="#087472"/><path d="M137.93,175.7h70.14A10.89,10.89,0,0,1,219,186.58V287.46a9.88,9.88,0,0,1-9.88,9.88H137.6A10.37,10.37,0,0,1,127.23,287V186.4A10.7,10.7,0,0,1,137.93,175.7Z" fill="url(#linear-gradient-10)"/><rect x="131.52" y="185.29" width="83.17" height="97.36" fill="#fff"/><path d="M195.82,274.07l9.4-5.36a55,55,0,0,1,10.41-5c5.49-1.75,11.37-1.73,17.12-1.54,9.08.3,18.45,1.09,26.47,5.36s14.37,12.85,13.39,21.88a29.53,29.53,0,0,1-1.72,6.66,2.73,2.73,0,0,1-.87,1.4,2.66,2.66,0,0,1-1.53.31c-20.66.13-41.32,1.26-62,.2-5.44-.28-10.86.47-16.31.71-.71,0-.76-15.57-.67-16.79C189.88,277.78,192.3,276.08,195.82,274.07Z" transform="translate(-57.74 -14.81)" fill="#087472"/><path d="M262.38,262.16a37.2,37.2,0,0,1,2,9.19c.44,3.54.85,7.09,1,10.66.22,4.77,0,9.58.85,14.29s2.82,9.42,6.6,12.34a2,2,0,0,0,1.72.57c.65-.2.94-.95,1.12-1.61,2.25-8.51-.2-17.44-1.38-26.16A112.58,112.58,0,0,0,272.6,270a35.18,35.18,0,0,0-2.75-7.53,17.47,17.47,0,0,0-3.74-5.25c-.93-.84-4.62-3.46-5.79-2.06S261.85,260.84,262.38,262.16Z" transform="translate(-57.74 -14.81)" fill="url(#linear-gradient-11)"/><path d="M199.36,277.63a53.6,53.6,0,0,0-.36,7.06l0,11a23.33,23.33,0,0,1-.55,6,14,14,0,0,1-7,8.37,3,3,0,0,1-1.37.44c-1.19,0-2-1.25-2.4-2.36-2.5-6.21-2.78-13.06-2.64-19.74s.68-13.41-.31-20a4.88,4.88,0,0,1,.09-2.71A4.61,4.61,0,0,1,187,263.8l10.33-5.5c2.07-1.11,6.8-8.43,8.22-5.11,1.07,2.48-2.47,11.82-3.31,14.17A53.23,53.23,0,0,0,199.36,277.63Z" transform="translate(-57.74 -14.81)" fill="url(#linear-gradient-12)"/><path d="M180.81,315.28a34.6,34.6,0,0,0,12.58-16.7c4.09-11.66,1.87-25.28,8.12-35.94,1.5-2.56,3.49-4.92,4.2-7.8s-.44-6.56-3.32-7.29-5.6,1.85-7.54,4.2l-9.93,12c-.12-1-.12-10.59,0-13.78-10.21.5-19.19,8.78-21.72,18.69a46.2,46.2,0,0,0-1.12,11.2c0,3.9.12,7.81.35,11.71a44.39,44.39,0,0,1,0,7.56c-.83,7.09-5.32,13.2-7.21,20.08a1.3,1.3,0,0,0,0,.87,1.33,1.33,0,0,0,.62.55c2.93,1.56,6.35,1.86,9.67,2s6.9.26,10.36.23a4.06,4.06,0,0,0,1.93-.33c1.2-.64,1.47-2.22,1.6-3.58" transform="translate(-57.74 -14.81)" fill="url(#linear-gradient-13)"/><path d="M273.43,304.93c-6.69-12.63-3.05-28.79-9.6-41.49-1.67-3.23-4-6.38-4-10a2.46,2.46,0,0,1,3.34-2.65c5.51.88,8.51,7,13.49,9.52l-.37-9.46a28.16,28.16,0,0,1,15.57,7.36,18.87,18.87,0,0,1,4.62,6.31,24.06,24.06,0,0,1,1.57,8.12c.37,6.61-.17,13.26.29,19.86s2,13.38,6.11,18.6c2.21,2.83,5.27,5.63,5,9.2a1.2,1.2,0,0,1-.25.76,1.35,1.35,0,0,1-1,.29q-5.9.06-11.79-.09c-3.26-.09-9.39.8-12.34-.56-2.11-1-3.37-5-4.82-7.08A90.79,90.79,0,0,1,273.43,304.93Z" transform="translate(-57.74 -14.81)" fill="url(#linear-gradient-14)"/><path d="M222.53,269a16.08,16.08,0,0,0,8.05,10.43c2.44,1.26,5.24,1.79,7.73.68,3.61-1.61,5.81-6.38,6.29-11.12s-.44-9.5-1.36-14.13a7.25,7.25,0,0,0-1.45-3.7,4.35,4.35,0,0,0-2.12-1.06c-4.24-1.12-12.95-2.23-16.35,2.18C220.73,255.61,221.58,265.08,222.53,269Z" transform="translate(-57.74 -14.81)" fill="url(#linear-gradient-15)"/><path d="M213.38,223.77v28.3s.19,12.57,20.23,14.15,18.08-23.78,18.08-23.78l.4-21S218.29,216.5,213.38,223.77Z" transform="translate(-57.74 -14.81)" fill="url(#linear-gradient-16)"/><path d="M216.33,230.15c-.28.37-.83.37-1.27.52-1.23.41-1.67,1.9-1.89,3.18a77,77,0,0,0-1,9.59l-3.41-9.15a22.45,22.45,0,0,1-1.67-6.24,7.63,7.63,0,0,1,1.91-6,6.8,6.8,0,0,0,1.18-1.28,5.53,5.53,0,0,0,.47-2,10.18,10.18,0,0,1,3.88-6.17,21.47,21.47,0,0,1,6.65-3.31,42.64,42.64,0,0,1,27.18-.15c2.91,1,5.88,2.57,7.24,5.33a11.83,11.83,0,0,1,1,4.72,36,36,0,0,1-4.61,19.18,36.06,36.06,0,0,0-1.41-12.94c.51,1.69-18.57,2.29-20.24,2.09-3.42-.39-6.56-1.67-9.9-2.23-1.24-.21-2-.34-2.87.64C216.4,227.12,217.17,229.08,216.33,230.15Z" transform="translate(-57.74 -14.81)" fill="#b7a451"/><path d="M221.09,250.52a9.7,9.7,0,0,1,7.18-4,28.18,28.18,0,0,1,8.42.72c2.15.41,4.48.92,5.85,2.62,1,1.24,1.31,2.9,2.14,4.26s2.69,2.41,4,1.48c.22,2.39-1.64,4.38-3.11,6.27s-2.67,4.05-4.72,5.24a11.4,11.4,0,0,1-4.78,1.23A24.76,24.76,0,0,1,224.82,267a15.89,15.89,0,0,1-4.62-2.82c-.92-.81-3.43-3.11-3.35-4.48,0-.59.89-1.21,1.24-1.76a11.87,11.87,0,0,0,1.08-2.48A21.79,21.79,0,0,1,221.09,250.52Z" transform="translate(-57.74 -14.81)" fill="#b7a451"/><path d="M226.89,253.12a3.2,3.2,0,0,1,2.25-.88,41.82,41.82,0,0,1,7.25-.15,5.63,5.63,0,0,1,2.37.53c1.77,1,2.11,3.31,2.25,5.31a5.08,5.08,0,0,1-.41,3,4.45,4.45,0,0,1-3.08,1.72c-3.25.65-7.61.51-10.54-1.26a2.63,2.63,0,0,1-1.29-2.76C225.8,257.16,225.94,254.3,226.89,253.12Z" transform="translate(-57.74 -14.81)" fill="url(#linear-gradient-17)"/><path d="M170.2,348.07c-.14.62-.28,1.27-.47,1.9-14.66-1.74-26.2-3.65-32-4.69a16.56,16.56,0,0,1,1.41-5.82,127.34,127.34,0,0,1,7.64-15.61,7.71,7.71,0,0,1,3-3.37,8,8,0,0,1,4.31-.29c5.79.69,20.36.47,23.06,7.2C179.27,332.56,171.4,342.49,170.2,348.07Z" transform="translate(-57.74 -14.81)" fill="#087472"/><path d="M317.38,332a3.62,3.62,0,0,1-.86,1.67h0c-10.37,5.86-20.51,10.48-29.95,13.22a3.54,3.54,0,0,1-.77-1.52q-3.19-10.11-6.38-20.24c-.71-2.28-1.37-5,0-6.91s4.4-2.18,6.91-2.12c6.31,0,16.68-1.5,22.59.63,5.36,1.94,6.07,7.89,8,13A4.54,4.54,0,0,1,317.38,332Z" transform="translate(-57.74 -14.81)" fill="#087472"/></svg>