<?xml version="1.0" encoding="utf-8"?>
<!-- Generator: Adobe Illustrator 23.0.6, SVG Export Plug-In . SVG Version: 6.00 Build 0)  -->
<svg version="1.1" xmlns="http://www.w3.org/2000/svg" xmlns:xlink="http://www.w3.org/1999/xlink" x="0px" y="0px"
	 viewBox="0 0 1000 1000" style="enable-background:new 0 0 1000 1000;" xml:space="preserve">
<style type="text/css">
	.st0{fill:#F24405;}
	.st1{fill:#FFFFFF;}
	.st2{display:none;}
	.st3{display:inline;fill:#00FF9D;stroke:#000000;stroke-miterlimit:10;}
	.st4{display:inline;fill:none;stroke:#000000;stroke-miterlimit:10;}
</style>
<g id="Layer_4">
	<rect x="1" class="st0" width="1000" height="1000"/>
</g>
<g id="Layer_1">
	<g id="XMLID_1_">
		<g>
			<path class="st1" d="M308.2,335.29c0-107.57,75.41-196.03,172.07-206.72c10.2-1.12,19.08,6.94,19.08,17.21v23.78
				c0,8.8-6.61,16.1-15.33,17.18c-68.72,8.55-122.08,71.8-122.08,148.55s53.35,139.99,122.08,148.56
				c8.72,1.09,15.33,8.39,15.33,17.17v23.78c0,10.25-8.89,18.33-19.08,17.2C383.61,531.32,308.2,442.84,308.2,335.29z"/>
			<path class="st1" d="M519.72,306.5c96.67,10.67,172.08,99.15,172.08,206.71s-75.41,196.03-172.08,206.72
				c-10.19,1.12-19.07-6.94-19.07-17.21v-23.79c0-8.79,6.6-16.08,15.32-17.17c68.71-8.55,122.06-71.8,122.06-148.55
				s-53.35-139.99-122.06-148.56c-8.72-1.09-15.32-8.39-15.32-17.17v-23.78C500.65,313.44,509.53,305.36,519.72,306.5z"/>
			<path class="st1" d="M595.09,713.88c8.41-4.69,19.05-1.44,23.56,7.05l65.15,122.52c4.49,8.44,1.29,18.91-7.14,23.39l-5.9,3.13
				c-8.43,4.48-18.89,1.28-23.38-7.15L582.22,740.3c-4.5-8.48-1.26-19.11,7.3-23.46C591.4,715.89,593.25,714.9,595.09,713.88z"/>
		</g>
		<g>
		</g>
	</g>
</g>
<g id="Layer_2_copy" class="st2">
	<rect x="0.5" y="0.5" class="st3" width="1000" height="1000"/>
</g>
<g id="Layer_1_copy" class="st2">
	<path class="st4" d="M500.69,380.14v-34.71h-0.39c68.36,0,123.78,55.42,123.78,123.78s-55.42,123.78-123.78,123.78h0.39V558.3
		h-0.39c49.2,0,89.08-39.88,89.08-89.08s-39.88-89.08-89.08-89.08"/>
	<path class="st4" d="M842,598.56V597c0,188.65-152.93,342.07-341.57,342.07S158.86,786.15,158.86,597.5v1.06l-0.36-0.06v-508H308
		v508l-0.11-0.33c0,106.48,86.32,192.8,192.8,192.8S694,704.48,694,598v0.25V239v0.5h-51.5l124.87-149l124.87,149H842V239v359"/>
	<path class="st4" d="M499.86,274.16v-34.71h0.39c-68.36,0-123.78,55.42-123.78,123.78s55.42,123.78,123.78,123.78h-0.39v-34.71
		h0.39c-49.2,0-89.08-39.88-89.08-89.08s39.88-89.08,89.08-89.08"/>
</g>
</svg>
